<?xml version="1.0" encoding="UTF-8" standalone="no"?>
<!-- Created with Inkscape (http://www.inkscape.org/) -->

<svg
   width="100"
   height="100"
   viewBox="0 0 26.458333 26.458334"
   version="1.1"
   id="svg5"
   inkscape:version="1.1.1 (3bf5ae0d25, 2021-09-20)"
   sodipodi:docname="iconu_bsuit.svg"
   inkscape:export-filename="E:\unvanquished assets\icons\image2.png"
   inkscape:export-xdpi="480"
   inkscape:export-ydpi="480"
   xmlns:inkscape="http://www.inkscape.org/namespaces/inkscape"
   xmlns:sodipodi="http://sodipodi.sourceforge.net/DTD/sodipodi-0.dtd"
   xmlns="http://www.w3.org/2000/svg"
   xmlns:svg="http://www.w3.org/2000/svg">
  <sodipodi:namedview
     id="namedview7"
     pagecolor="#ffffff"
     bordercolor="#666666"
     borderopacity="1.0"
     inkscape:pageshadow="2"
     inkscape:pageopacity="0.0"
     inkscape:pagecheckerboard="0"
     inkscape:document-units="mm"
     showgrid="false"
     units="px"
     inkscape:zoom="2.6775"
     inkscape:cx="45.751634"
     inkscape:cy="72.64239"
     inkscape:window-width="1920"
     inkscape:window-height="1017"
     inkscape:window-x="-8"
     inkscape:window-y="-8"
     inkscape:window-maximized="1"
     inkscape:current-layer="layer1">
    <inkscape:grid
       type="xygrid"
       id="grid1942" />
  </sodipodi:namedview>
  <defs
     id="defs2">
    <inkscape:path-effect
       effect="mirror_symmetry"
       start_point="10.583333,0.52694874"
       end_point="10.583333,26.00396"
       center_point="10.583333,13.265455"
       id="path-effect2647"
       is_visible="true"
       lpeversion="1.1"
       mode="free"
       discard_orig_path="false"
       fuse_paths="false"
       oposite_fuse="false"
       split_items="true"
       split_open="false" />
    <inkscape:path-effect
       effect="mirror_symmetry"
       start_point="10.591468,0.62624476"
       end_point="10.513751,4.6593088"
       center_point="10.552609,2.6427768"
       id="path-effect1400"
       is_visible="true"
       lpeversion="1.1"
       mode="free"
       discard_orig_path="false"
       fuse_paths="false"
       oposite_fuse="false"
       split_items="false"
       split_open="false" />
  </defs>
  <g
     inkscape:label="Calque 1"
     inkscape:groupmode="layer"
     id="layer1">
    <g
       id="g8067"
       transform="translate(2.6458256,-0.03602369)">
      <path
         style="fill:#ffffff;fill-opacity:1;stroke:#000000;stroke-width:0.132292;stroke-linecap:butt;stroke-linejoin:miter;stroke-miterlimit:4;stroke-dasharray:none;stroke-opacity:1"
         d="m 8.9648272,2.9951658 c 0,0 -0.5870442,0.012401 -0.7110677,0.3555339 C 8.1297361,3.6938312 8.1359374,3.9563476 8.1214679,3.9625486 8.1069986,3.96875 7.5964353,4.3098143 7.5364908,4.2974119 7.476546,4.2850096 6.0192708,3.2576823 5.5727864,3.7868489 5.126302,4.3160156 5.0105468,4.729427 5.018815,5.3743489 c 0.00827,0.6449219 0.3886068,1.480013 0.4878256,1.5875 0.099219,0.1074869 -0.00414,0.3534666 -0.082682,0.4836914 -0.078548,0.1302244 -0.2965596,0.7337425 -0.322869,0.8185168 -0.02631,0.084775 -0.058465,0.1198539 -0.00585,0.1520098 0.052619,0.032156 0.1198538,0.020463 0.1140071,0.055542 C 5.2033967,8.5066879 4.8617154,9.1033204 4.812106,9.123991 4.762497,9.144663 4.667412,9.103319 4.6219368,9.157064 c -0.045475,0.053743 -0.6986654,1.810742 -0.8102865,2.009179 -0.1116211,0.198438 -0.1943034,0.301791 -0.2025716,0.322461 -0.00827,0.02067 -0.076322,0.0056 -0.130402,0.07279 -0.05408,0.06723 -0.1169305,0.236784 -0.1125456,0.287941 0.00438,0.05116 0.019,0.118392 0.048234,0.140317 0.029232,0.02192 -0.036541,0.114007 -0.096468,0.182703 -0.059927,0.0687 -0.505724,0.646041 -0.5846521,0.982216 -0.078928,0.336175 -0.1110839,0.418026 -0.1110839,0.461875 0,0.04385 0.029233,0.06724 0.058465,0.06139 0.029233,-0.0058 0.040926,0.04969 0.049696,0.201704 0.00877,0.15201 0.048234,0.621193 0.064312,0.631425 0.016079,0.01023 0.055542,-0.01169 0.055542,0.03069 0,0.04239 0.027771,0.09208 0.061388,0.106699 0.033618,0.01462 0.038002,0.07162 0.05408,0.07747 0.016079,0.0058 0.1783189,0.03362 0.1943968,-0.0015 0.016079,-0.03508 -0.019,-0.213398 -0.00731,-0.228014 0.011692,-0.01462 0.1008526,0.05846 0.13447,0.06285 0.033617,0.0044 0.1242385,-0.01023 0.1286235,-0.04385 0.00438,-0.03362 -0.1602046,-0.702226 -0.1620206,-0.853866 -0.00292,-0.244092 0.3621148,-0.623705 0.5387005,-0.601629 0.1765857,0.02208 0.2094335,0.303731 0.2693606,0.335886 0.059927,0.03216 0.1710108,0.057 0.2323991,-0.07893 0.061389,-0.135932 0.1914737,-0.732277 0.1958586,-0.757125 0.00438,-0.02485 -0.015362,-0.343663 0.062105,-0.384543 0.077466,-0.04093 0.4661965,0.06897 0.4574266,-0.05088 -0.00877,-0.119854 0.1557415,-0.320191 0.3019044,-0.444429 0.1461633,-0.124239 0.925212,-0.969061 1.0567588,-1.216077 0.1315466,-0.247015 0.1841654,-0.267478 0.1593178,-0.343483 -0.024847,-0.076 0.276248,-0.8360518 0.292326,-0.8521297 0.016079,-0.016079 0.1318384,0.010378 0.1596093,-0.00862 0.027771,-0.019002 0.3478679,-0.5510345 0.3756391,-0.5919602 0.027771,-0.040926 0.1487945,-0.478099 0.1575643,-0.4883302 0.00877,-0.010231 0.057003,0.010231 0.059927,0.023387 0.00292,0.013155 -0.059029,0.2448786 -0.076569,0.3223448 -0.017539,0.077467 -0.049128,0.3763145 -0.041823,0.4216249 0.00731,0.045311 0.040925,0.146163 0.118392,0.1753957 0.077466,0.029232 0.093544,0.00731 0.1008525,0.02631 0.00731,0.019002 0.021061,0.047994 0.018994,0.065564 -0.00206,0.017571 -0.03514,0.027905 -0.034107,0.05581 0.00103,0.027905 0.075448,0.2790528 0.107487,0.3524332 0.032039,0.073381 0.020672,0.089917 0.1095542,0.089917 0.088883,0 0.113688,-0.016536 0.1167887,-0.00103 0.0031,0.015502 -0.1085205,0.1074869 -0.08785,0.2315104 0.020672,0.1240241 0.045475,0.4878261 0.095085,0.5622401 0.049609,0.07441 0.095085,0.08682 0.1405599,0.09508 0.045475,0.0083 0.037207,0.343132 0.012401,0.384473 -0.024805,0.04134 -0.1240234,0.02067 -0.1488281,0.03721 -0.024805,0.01654 -0.2232422,0.454753 -0.2191081,0.58291 0.00414,0.128158 0.062012,0.14056 0.07028,0.190169 0.00827,0.04961 -0.2480469,0.653191 -0.2604492,0.748275 -0.012401,0.09509 -0.1612305,0.06201 -0.289388,0.107487 -0.1281576,0.04547 -0.4382162,0.768945 -0.4464844,0.847494 -0.00827,0.07855 0.074414,0.276985 0.099219,0.289388 0.024805,0.0124 -0.2852539,0.822688 -0.2769856,1.116211 0.00827,0.293522 0.057878,2.220019 0.057878,2.31097 0,0.09095 0.07028,0.186035 0.07028,0.206705 0,0.02067 -0.1116211,0.107487 -0.1322916,0.194304 -0.020672,0.08682 0.045475,0.520898 0.062012,0.644922 0.016536,0.124023 0.1116211,0.194303 0.1529622,0.186035 0.041341,-0.0083 0.107487,0.09922 0.1116211,0.136426 0.00414,0.03721 -0.066146,0.107487 -0.099219,0.124023 -0.033073,0.01654 -0.099219,-0.0124 -0.107487,0.0124 -0.00827,0.02481 0.033073,0.219108 0.031006,0.243913 -0.00206,0.0248 -0.039274,0.227376 -0.00206,0.328662 0.037207,0.101286 0.057394,0.220918 0.066163,0.293999 0.00877,0.07308 -0.00837,0.499377 -0.010231,0.60073 -0.00196,0.107054 0.081851,1.521557 0.222168,1.878195 0.1403165,0.356638 0.1403165,0.970522 0.1812419,1.052374 0.040926,0.08185 0.13447,0.02339 0.1286235,0.105237 -0.00585,0.08185 -0.2046282,0.836053 -0.2280142,0.912057 -0.023386,0.07601 -0.13447,0.590499 -0.1520095,0.666504 -0.017539,0.07601 -0.017539,0.222168 -0.058465,0.274786 -0.040926,0.05262 -0.13447,0.175396 -0.1403165,0.216322 -0.00585,0.04093 -0.1637027,0.05847 -0.1987817,0.122777 -0.035079,0.06431 -0.1052375,0.420949 -0.111084,0.479414 -0.00585,0.05846 2.7537113,0.146163 2.7887903,0.09354 0.035079,-0.05262 0.1753958,-0.491107 0.1812423,-0.608038 0.00585,-0.11693 -0.046772,-0.406333 -0.043849,-0.473568 0.00292,-0.06724 0.040926,-0.429719 0.00585,-0.470645 -0.035079,-0.04093 -0.076005,-0.06139 -0.078928,-0.11693 -0.00292,-0.05554 0.099391,-0.570036 0.052619,-0.596345 -0.046772,-0.02632 -0.2104745,-0.04678 -0.239707,-0.0614 -0.029233,-0.01461 -0.076005,-0.114007 -0.064312,-0.14324 0.011692,-0.02923 0.6898894,-1.330083 0.7249683,-1.71303 0.035079,-0.382947 -0.1169302,-1.341777 -0.1695489,-1.672105 -0.052619,-0.330329 -0.040926,-1.219 -0.067235,-1.242386 -0.02631,-0.02339 -0.1637025,0.01462 -0.192935,-0.02923 -0.029233,-0.04385 0.038002,-0.409257 0.055542,-0.438489 0.017539,-0.02923 0.1227769,-0.0088 0.1373931,-0.038 0.014616,-0.02923 0.052619,-0.552496 0.032156,-0.581729 -0.020463,-0.02923 -0.043849,-0.0088 -0.061388,-0.06724 -0.017539,-0.05846 0.5060019,-1.248572 0.5556119,-1.525558 0.04961,-0.276993 0.186033,-1.054206 0.227374,-1.418008 0.04134,-0.363792 -0.04961,-0.504352 0.214971,-0.504352 0.264583,0 0.173633,0.14056 0.214971,0.504352 0.04134,0.363802 0.177764,1.141015 0.227374,1.418008 0.04961,0.276986 0.573151,1.467098 0.555612,1.525558 -0.01754,0.05844 -0.04092,0.03801 -0.06139,0.06724 -0.02046,0.02923 0.01754,0.552499 0.03216,0.581729 0.01462,0.0292 0.119854,0.0088 0.137393,0.038 0.01754,0.02923 0.08478,0.394639 0.05554,0.438489 -0.02923,0.04385 -0.166625,0.0058 -0.192935,0.02923 -0.02631,0.02339 -0.01462,0.912057 -0.06724,1.242386 -0.05262,0.330328 -0.204628,1.289158 -0.169549,1.672105 0.03508,0.382947 0.713276,1.6838 0.724968,1.71303 0.01169,0.02923 -0.03508,0.12863 -0.06431,0.14324 -0.02923,0.01462 -0.192935,0.03508 -0.239707,0.0614 -0.04677,0.02631 0.05554,0.540805 0.05262,0.596345 -0.0029,0.05554 -0.04385,0.076 -0.07893,0.11693 -0.03508,0.04093 0.0029,0.403405 0.0059,0.470645 0.0029,0.06724 -0.0497,0.356638 -0.04385,0.473568 0.0058,0.116931 0.146164,0.555418 0.181243,0.608038 0.03508,0.05262 2.79464,-0.03508 2.78879,-0.09354 -0.0058,-0.05846 -0.076,-0.415104 -0.111084,-0.479414 -0.03508,-0.06431 -0.192932,-0.08185 -0.198782,-0.122777 -0.0058,-0.04093 -0.09939,-0.163702 -0.140316,-0.216322 -0.04093,-0.05262 -0.04093,-0.198776 -0.05846,-0.274786 -0.01754,-0.07601 -0.128624,-0.590494 -0.15201,-0.666504 -0.02339,-0.076 -0.222164,-0.830207 -0.228014,-0.912057 -0.0058,-0.08185 0.0877,-0.02339 0.128624,-0.105237 0.04093,-0.08185 0.04093,-0.695736 0.181241,-1.052374 0.140317,-0.356638 0.224129,-1.771141 0.222168,-1.878195 -0.0019,-0.101353 -0.019,-0.52765 -0.01023,-0.60073 0.0088,-0.07308 0.02896,-0.192713 0.06616,-0.293999 0.03721,-0.101286 0,-0.303862 -0.0021,-0.328662 -0.0021,-0.02481 0.03927,-0.219103 0.03101,-0.243913 -0.0083,-0.0248 -0.07441,0.0041 -0.107487,-0.0124 -0.03307,-0.01654 -0.103359,-0.08681 -0.09922,-0.124023 0.0041,-0.03721 0.07028,-0.144726 0.111622,-0.136426 0.04134,0.0083 0.136426,-0.06201 0.152962,-0.186035 0.01654,-0.124024 0.08268,-0.558102 0.06201,-0.644922 -0.02067,-0.08682 -0.132292,-0.173634 -0.132292,-0.194304 0,-0.02067 0.07028,-0.115755 0.07028,-0.206705 0,-0.09095 0.04961,-2.017448 0.05788,-2.31097 0.0083,-0.293523 -0.30179,-1.103811 -0.276985,-1.116211 0.02481,-0.0124 0.107489,-0.210838 0.09922,-0.289388 -0.0083,-0.07855 -0.318327,-0.802024 -0.446485,-0.847494 -0.128157,-0.04548 -0.276987,-0.0124 -0.289388,-0.107487 -0.0124,-0.09508 -0.268719,-0.698665 -0.260449,-0.748275 0.0083,-0.04961 0.06614,-0.06201 0.07028,-0.190169 0.0041,-0.128157 -0.194303,-0.56637 -0.219108,-0.58291 -0.02481,-0.01654 -0.124023,0.0041 -0.148828,-0.03721 -0.02481,-0.04134 -0.03307,-0.376173 0.0124,-0.384473 0.04547,-0.0083 0.09095,-0.02067 0.14056,-0.09508 0.04961,-0.07441 0.07441,-0.438216 0.09508,-0.56224 0.02067,-0.1240235 -0.09095,-0.2160084 -0.08785,-0.2315104 0.0031,-0.015506 0.02791,0.00103 0.116788,0.00103 0.08888,0 0.07752,-0.016536 0.109555,-0.089917 0.03204,-0.07338 0.106457,-0.3245282 0.107487,-0.3524332 0.001,-0.027905 -0.03205,-0.038239 -0.03411,-0.05581 -0.0021,-0.01757 0.01168,-0.046562 0.01899,-0.065564 0.0073,-0.019 0.02339,0.00292 0.100852,-0.02631 0.07747,-0.029233 0.111082,-0.1300847 0.118392,-0.1753957 0.0073,-0.04531 -0.02428,-0.3441579 -0.04182,-0.4216249 -0.01754,-0.077466 -0.07949,-0.3091898 -0.07657,-0.3223448 0.0029,-0.013156 0.05116,-0.033618 0.05993,-0.023387 0.0088,0.010231 0.129793,0.4474042 0.157564,0.4883302 0.02777,0.040926 0.347868,0.5729582 0.37564,0.5919602 0.02777,0.018998 0.14353,-0.00746 0.159609,0.00862 0.01608,0.016078 0.317173,0.7761296 0.292326,0.8521296 -0.02485,0.07601 0.02777,0.09647 0.159318,0.343483 0.131546,0.247016 0.910595,1.091838 1.056758,1.216077 0.146163,0.124238 0.310675,0.324575 0.301905,0.444429 -0.0088,0.11985 0.37996,0.0099 0.457426,0.05088 0.07747,0.04088 0.05773,0.359693 0.0621,0.384543 0.0044,0.02485 0.13447,0.621193 0.195859,0.757125 0.06139,0.13593 0.172472,0.11109 0.232399,0.07893 0.05993,-0.03216 0.09278,-0.313806 0.269361,-0.335886 0.176585,-0.02208 0.54162,0.357537 0.5387,0.601629 -0.0018,0.15164 -0.1664,0.820246 -0.16202,0.853866 0.0044,0.03362 0.09501,0.04825 0.128623,0.04385 0.03362,-0.0044 0.122778,-0.07747 0.13447,-0.06285 0.01169,0.01462 -0.02339,0.192934 -0.0073,0.228014 0.01608,0.03512 0.178318,0.0073 0.194397,0.0015 0.01608,-0.0058 0.02046,-0.06285 0.05408,-0.07747 0.03362,-0.01462 0.06139,-0.06431 0.06139,-0.106699 0,-0.04238 0.03946,-0.02046 0.05554,-0.03069 0.01608,-0.01023 0.05554,-0.479415 0.06431,-0.631425 0.0088,-0.152014 0.02046,-0.207504 0.0497,-0.201704 0.02923,0.0058 0.05847,-0.01754 0.05847,-0.06139 0,-0.04385 -0.03216,-0.1257 -0.111084,-0.461875 -0.07893,-0.336175 -0.524725,-0.913516 -0.584652,-0.982216 -0.05993,-0.0687 -0.1257,-0.160783 -0.09647,-0.182703 0.02923,-0.02192 0.04385,-0.08916 0.04823,-0.140317 0.0044,-0.05116 -0.05847,-0.220711 -0.112546,-0.287941 -0.05408,-0.06719 -0.122132,-0.05212 -0.130402,-0.07279 -0.0083,-0.02067 -0.09095,-0.124023 -0.202571,-0.322461 C 17.243405,10.967806 16.590214,9.2108071 16.544739,9.1570641 16.499269,9.1033191 16.404179,9.1446631 16.35457,9.1239911 16.30496,9.1033201 15.963279,8.506688 15.957429,8.471609 c -0.0058,-0.035079 0.06139,-0.023386 0.114007,-0.055542 0.05261,-0.032156 0.02046,-0.067235 -0.0058,-0.1520098 -0.02631,-0.084774 -0.244321,-0.6882924 -0.322869,-0.8185168 -0.07854,-0.1302248 -0.181901,-0.3762045 -0.08268,-0.4836914 0.09922,-0.107487 0.479556,-0.9425781 0.487826,-1.5875 0.0083,-0.6449219 -0.107487,-1.0583333 -0.553971,-1.5875 -0.446485,-0.5291666 -1.90376,0.4981607 -1.963705,0.510563 -0.05994,0.012402 -0.570508,-0.3286619 -0.584977,-0.3348633 -0.01447,-0.0062 -0.0083,-0.2687174 -0.132291,-0.6118489 -0.124086,-0.3431329 -0.71113,-0.3555339 -0.71113,-0.3555339"
         id="path3351"
         sodipodi:nodetypes="csssscscsccssssccccsscssssccsccszcsccsssssssscscssccssssscsscsscsssssssccssccssssssssssssssssscsssssscscsszsscscssssssccsssssssssssssscsccssccssssssscsscsscsssssscsscscssssssssccscssccsccsssscssssccssssssscssssssc" />
      <path
         style="fill:#ffffff;fill-opacity:1;stroke:#000000;stroke-width:0.132292;stroke-linecap:butt;stroke-linejoin:miter;stroke-miterlimit:4;stroke-dasharray:none;stroke-opacity:1"
         d="M 9.0041014,3.4478515 C 8.9517024,3.3515052 8.9462234,2.9848307 8.9296874,1.7032552 8.9131509,0.42167968 9.907313,0.52916668 10.583333,0.52916669 c 0.67602,10e-9 1.670182,-0.10748694 1.653646,1.17408861 -0.01654,1.2815755 -0.02201,1.64825 -0.07441,1.7445963 -0.0524,0.096346 -0.785482,1.3146485 -1.579234,1.3146485 C 9.7895832,4.7625 9.0565004,3.5441978 9.0041014,3.4478515 Z"
         id="path1996"
         sodipodi:nodetypes="zszsszz" />
      <path
         style="fill:none;stroke:#000000;stroke-width:0.132292;stroke-linecap:butt;stroke-linejoin:miter;stroke-miterlimit:4;stroke-dasharray:none;stroke-opacity:1"
         d="m 10.583333,8.7312499 c -0.529166,0 -1.0979335,-0.1850095 -1.3341372,-0.3239529 C 8.7522416,8.114971 8.3254457,7.5770909 8.161743,7.2613789 8.0698848,7.084224 7.9103428,6.1505398 7.9629613,5.6769716 8.01558,5.2034035 8.0915848,4.0107134 8.0915848,4.0107134"
         id="path3485"
         sodipodi:nodetypes="csssc" />
      <path
         style="fill:none;stroke:#000000;stroke-width:0.132292;stroke-linecap:butt;stroke-linejoin:miter;stroke-miterlimit:4;stroke-dasharray:none;stroke-opacity:1"
         d="m 6.7963727,25.326419 c 0,0 0.7631786,-0.189303 1.0058092,-0.165917 0.2426309,0.02339 0.5700358,0.08478 0.6314244,0.201705 0.061388,0.116931 0.1549329,0.561266 0.157856,0.608039"
         id="path3812"
         sodipodi:nodetypes="cssc" />
      <path
         style="fill:none;stroke:#000000;stroke-width:0.132292;stroke-linecap:butt;stroke-linejoin:miter;stroke-miterlimit:4;stroke-dasharray:none;stroke-opacity:1"
         d="m 6.9453125,13.762467 c 0,0 0.4960937,-0.169496 0.7276041,0.08682 0.2315104,0.256315 0.8185546,0.802018 0.8929687,1.562695 0.074414,0.760677 0.144694,2.736784 0.07028,3.075781"
         id="path3904"
         sodipodi:nodetypes="cssc" />
      <path
         style="fill:none;stroke:#000000;stroke-width:0.132292;stroke-linecap:butt;stroke-linejoin:miter;stroke-miterlimit:4;stroke-dasharray:none;stroke-opacity:1"
         d="m 6.9778226,18.533471 c 0,0 0.4618751,-0.198782 0.6752732,-0.201705 0.2133979,-0.0029 0.7892802,0.05847 1.1459181,0.228014 0.3566377,0.16955 0.6197312,0.289403 0.6197312,0.289403"
         id="path4266"
         sodipodi:nodetypes="cccc" />
      <path
         style="fill:none;stroke:#000000;stroke-width:0.198437;stroke-linecap:butt;stroke-linejoin:miter;stroke-miterlimit:4;stroke-dasharray:none;stroke-opacity:1"
         d="m 7.7787959,12.070142 c 0,0 1.0786833,0.874055 1.4060882,1.341777 0.3274052,0.467721 0.6781969,1.028988 0.7834339,1.379779 0.052619,0.175396 0.073812,0.665041 0.295249,0.838975"
         id="path4268"
         sodipodi:nodetypes="cssc" />
      <path
         style="fill:none;stroke:#000000;stroke-width:0.132292;stroke-linecap:butt;stroke-linejoin:miter;stroke-miterlimit:4;stroke-dasharray:none;stroke-opacity:1"
         d="m 3.5722244,11.473797 c 0,0 0.6781964,0.0497 0.9383665,0.198782 0.26017,0.149086 0.4911077,0.444336 0.4911077,0.444336"
         id="path4934"
         sodipodi:nodetypes="ccc" />
      <path
         style="fill:none;stroke:#000000;stroke-width:0.132292;stroke-linecap:butt;stroke-linejoin:miter;stroke-miterlimit:4;stroke-dasharray:none;stroke-opacity:1"
         d="m 3.4093618,12.036674 c 0,0 0.1540925,-0.196008 0.2885625,-0.217932 0.13447,-0.02192 0.4180263,-0.0029 0.5598046,0.0877 0.1417781,0.09062 0.2250908,0.178319 0.2382457,0.207551 0.013155,0.02923 0.052585,0.04237 0.1445688,0.04547 0.091984,0.0031 0.3348633,0.0052 0.3431315,0.0052"
         id="path5026"
         sodipodi:nodetypes="cccssc" />
      <path
         style="fill:none;stroke:#000000;stroke-width:0.132292;stroke-linecap:butt;stroke-linejoin:miter;stroke-miterlimit:4;stroke-dasharray:none;stroke-opacity:1"
         d="m 2.8484049,14.585156 c 0,0 0.1819011,-0.02274 0.2067057,-0.08888 0.024805,-0.06614 0.00206,-0.316259 0.045475,-0.446484 0.043408,-0.130224 0.1426272,-0.177766 0.1736327,-0.204638"
         id="path5867"
         sodipodi:nodetypes="cscc" />
      <path
         style="fill:none;stroke:#000000;stroke-width:0.132292;stroke-linecap:butt;stroke-linejoin:miter;stroke-miterlimit:4;stroke-dasharray:none;stroke-opacity:1"
         d="m 5.174171,8.5534599 c 0,0 0.2864794,0.058465 0.3332517,0.076005 0.046772,0.017539 0.058465,0.3449447 0.093544,0.3858704 0.035079,0.040926 0.3917169,0.2514005 0.4560287,0.26894 0.064312,0.017539 0.3507912,-0.1637025 0.3917169,-0.1520095 0.040926,0.011692 0.3858705,0.13447 0.3858705,0.13447"
         id="path6381"
         sodipodi:nodetypes="cssssc" />
      <path
         style="fill:none;stroke:#000000;stroke-width:0.132292;stroke-linecap:butt;stroke-linejoin:miter;stroke-miterlimit:4;stroke-dasharray:none;stroke-opacity:1"
         d="m 5.5541949,7.0275179 c 0,0 0.8068199,0.1373934 0.9997548,0.02631 0.1929353,-0.1110835 0.186967,-0.9319303 0.2835564,-1.2891576 0.1841653,-0.6811195 0.6869663,-1.4704 0.6869663,-1.4704"
         id="path6383"
         sodipodi:nodetypes="cssc" />
      <path
         style="fill:none;stroke:#000000;stroke-width:0.132292;stroke-linecap:butt;stroke-linejoin:miter;stroke-miterlimit:4;stroke-dasharray:none;stroke-opacity:1"
         d="m 7.0012088,24.967567 c 0,0 0.5758823,-0.192935 0.7600476,-0.137393 0.1841654,0.05554 0.6372707,0.236784 0.7161988,0.228014 0.078928,-0.0088 0.1987817,-0.149086 0.2777098,-0.119853 0.078928,0.02923 0.2163213,0.195858 0.2250909,0.289402 0.00877,0.09354 -0.02631,0.368331 -0.1023141,0.456029 -0.076005,0.0877 -0.1987818,0.137393 -0.2367841,0.146163 -0.038002,0.0088 -0.081851,0.0058 -0.081851,0.0058"
         id="path6589"
         sodipodi:nodetypes="cscssscc" />
      <path
         style="fill:none;stroke:#000000;stroke-width:0.132292;stroke-linecap:butt;stroke-linejoin:miter;stroke-miterlimit:4;stroke-dasharray:none;stroke-opacity:1"
         d="m 7.0631347,24.674463 c 0,0 0.4444173,-0.642855 0.9322428,-0.630453 0.4878255,0.0124 0.8392253,0.227376 0.8557617,0.285254 0.016536,0.05788 0.1405599,0.446484 0.1736328,0.599447 0.033073,0.152962 0.082682,0.285254 0.144694,0.326595 0.062012,0.04134 0.289388,-0.107487 0.289388,-0.107487"
         id="path6624"
         sodipodi:nodetypes="cssssc" />
      <path
         style="fill:none;stroke:#000000;stroke-width:0.132292;stroke-linecap:butt;stroke-linejoin:miter;stroke-miterlimit:4;stroke-dasharray:none;stroke-opacity:1"
         d="m 6.8543619,19.033463 c 0,0 0.1240234,0.504362 0.2149739,0.640788 0.090951,0.136426 0.1570964,0.248047 0.2025717,0.227376 0.045475,-0.02067 0.1240234,-0.157096 0.3555338,-0.136425 0.2315104,0.02067 0.5953125,0.136425 0.6407878,0.202571 0.045475,0.06615 -0.024805,0.144694 0.2563151,-0.0083 0.2811198,-0.152962 0.4464843,-0.227376 0.4464843,-0.272852 0,-0.04547 -0.045475,-0.268717 0.00414,-0.351399 0.049609,-0.08268 0.053744,-0.157097 0.1570963,-0.194304 0.1033529,-0.03721 0.1736328,-0.01654 0.1736328,-0.04134 0,-0.02481 -0.00994,-0.265208 0.1128533,-0.250426 l 0.1227913,0.01478"
         id="path6776"
         sodipodi:nodetypes="csssscsssssc" />
      <path
         style="fill:none;stroke:#000000;stroke-width:0.132292;stroke-linecap:butt;stroke-linejoin:miter;stroke-miterlimit:4;stroke-dasharray:none;stroke-opacity:1"
         d="m 6.8926024,19.94917 c 0,0 0.046514,0.229443 0.1932699,0.514697 0.1429886,0.277932 0.1364258,0.264583 0.2976563,0.190169 0.1612304,-0.07441 0.3968749,-0.16123 0.5622395,-0.07028 0.1653646,0.09095 0.2645834,0.276986 0.4175456,0.285254 0.1529622,0.0083 0.4878255,-0.165364 0.686263,-0.516764 0.1984375,-0.3514 0.3679362,-0.500228 0.3431315,-0.574642 -0.024805,-0.07441 -0.1240234,-0.28112 -0.1157552,-0.409277 0.00827,-0.128158 0.027226,-0.263122 0.027226,-0.263122"
         id="path6778"
         sodipodi:nodetypes="cssscsssc" />
      <path
         style="fill:none;stroke:#000000;stroke-width:0.132292;stroke-linecap:butt;stroke-linejoin:miter;stroke-miterlimit:4;stroke-dasharray:none;stroke-opacity:1"
         d="m 7.4172454,23.186427 c 0,0 0.4003652,-0.138736 0.435505,-0.256561 0.03514,-0.117822 0.2315104,-0.09302 0.2914552,-0.08268 0.059945,0.01033 0.1116211,0.157096 0.2335774,0.200505 0.1219565,0.04341 0.2542481,-0.0124 0.3079916,0.03927 0.053743,0.05168 0.1632974,0.425814 0.2418456,0.448552 0.078548,0.02274 0.181901,0.03514 0.181901,0.03514"
         id="path7566"
         sodipodi:nodetypes="cscscsc" />
      <path
         style="fill:none;stroke:#000000;stroke-width:0.132292;stroke-linecap:butt;stroke-linejoin:miter;stroke-miterlimit:4;stroke-dasharray:none;stroke-opacity:1"
         d="m 8.1431814,22.855671 c 0,0 0.057134,-0.09378 0.1530755,-0.148764 0.1456791,-0.08348 0.3967025,-0.09271 0.6036778,-0.178947 0.2069754,-0.08624 0.5109702,-0.278123 0.6489536,-0.390235 0.1379834,-0.112111 0.2673431,-0.235003 0.3018388,-0.293215"
         id="path7852"
         sodipodi:nodetypes="csssc" />
      <path
         style="fill:none;stroke:#000000;stroke-width:0.132292;stroke-linecap:butt;stroke-linejoin:miter;stroke-miterlimit:4;stroke-dasharray:none;stroke-opacity:1"
         d="m 7.8844626,22.879387 c 0,0 -0.061446,-0.05713 -0.081928,-0.100254 -0.020481,-0.04312 -0.068992,-0.121814 -0.1433735,-0.162777 -0.074382,-0.04096 -0.1972733,-0.09918 -0.2802789,-0.13475 -0.083006,-0.03557 -0.1649336,-0.04635 -0.1649336,-0.04635"
         id="path8286"
         sodipodi:nodetypes="csssc" />
      <path
         style="fill:none;stroke:#000000;stroke-width:0.132292;stroke-linecap:butt;stroke-linejoin:miter;stroke-miterlimit:4;stroke-dasharray:none;stroke-opacity:1"
         d="m 8.5894719,7.8348746 c 0,0 0.030184,0.4743183 -0.06468,0.7244133 C 8.4299284,8.8093829 8.2013932,9.3311331 8.1022176,9.4906765 8.003042,9.65022 7.9890599,9.7197347 7.9890599,9.7197347"
         id="path8481"
         sodipodi:nodetypes="cssc" />
      <path
         style="fill:none;stroke:#000000;stroke-width:0.132292;stroke-linecap:butt;stroke-linejoin:miter;stroke-miterlimit:4;stroke-dasharray:none;stroke-opacity:1"
         d="m 7.5677,8.1714085 c 0,0 0.2164813,-0.2957563 0.3658841,-0.5152866 C 8.0829866,7.4365915 8.1775066,7.299385 8.1775066,7.299385"
         id="path9029"
         sodipodi:nodetypes="csc" />
      <path
         style="fill:none;stroke:#000000;stroke-width:0.132292;stroke-linecap:butt;stroke-linejoin:miter;stroke-miterlimit:4;stroke-dasharray:none;stroke-opacity:1"
         d="m 7.9488291,7.6286807 c 0,0 -0.088422,-0.265266 -0.067079,-0.5030905 C 7.903094,6.8877655 7.91224,6.7810496 7.94578,6.7139708 7.979319,6.6468918 8.0159083,6.634696 8.0159083,6.634696"
         id="path9031"
         sodipodi:nodetypes="cssc" />
      <path
         style="fill:none;stroke:#000000;stroke-width:0.132292;stroke-linecap:butt;stroke-linejoin:miter;stroke-miterlimit:4;stroke-dasharray:none;stroke-opacity:1"
         d="m 7.9793194,5.509603 c 0,0 0.1006181,-0.048783 0.3353938,-0.054883 0.2347754,-0.0061 0.7927484,-0.033539 0.8811704,-0.1006181 0.088422,-0.067079 0.057932,-0.2683146 0.2256285,-0.3414916 0.1676969,-0.073177 0.7745169,0.014473 1.1618209,0.014473 0.387304,0 0.994124,-0.08765 1.161821,-0.014473 0.167697,0.073177 0.137206,0.2744128 0.225628,0.3414916 0.08842,0.067079 0.646395,0.09452 0.881171,0.1006181 0.234776,0.0061 0.335394,0.054883 0.335394,0.054883"
         id="path9085"
         sodipodi:nodetypes="cssszsssc" />
      <path
         style="fill:none;stroke:#000000;stroke-width:0.132292;stroke-linecap:butt;stroke-linejoin:miter;stroke-miterlimit:4;stroke-dasharray:none;stroke-opacity:1"
         d="M 9.9733871,8.1775062 C 9.7782489,8.1104274 9.6789664,8.0761827 9.5404244,7.9610248 9.44855,7.8846577 9.4663537,7.8343718 9.6532386,7.7201512 9.8401235,7.6059306 9.8758179,7.5798956 10.037417,7.525013 10.18203,7.4758994 10.31875,7.4083332 10.583333,7.4083332 c 0.264583,10e-8 0.401303,0.067566 0.545916,0.1166799 0.161599,0.054883 0.197293,0.080918 0.384178,0.1951382 0.186885,0.1142206 0.204689,0.1645065 0.112815,0.2408736 -0.138542,0.1151579 -0.237825,0.1494026 -0.432963,0.2164814 -0.193426,0.06649 -0.406466,0.024577 -0.609946,0.024577 -0.20348,0 -0.41652,0.041913 -0.6099459,-0.024577 z"
         id="path9087"
         sodipodi:nodetypes="sszszsssszs" />
      <path
         style="fill:none;stroke:#000000;stroke-width:0.132292;stroke-linecap:butt;stroke-linejoin:miter;stroke-miterlimit:4;stroke-dasharray:none;stroke-opacity:1"
         d="m 8.3135048,9.9779306 c 0,0 0.060368,0.028028 0.092708,0.1487634 0.03234,0.120736 0.00647,0.610146 0.040964,0.778313 0.034496,0.168168 0.1293598,0.379455 0.2005073,0.487254 l 0.071148,0.1078 c 0,0 0.1995895,0.296648 0.3581392,0.403364 0.1585497,0.106716 0.7104249,0.225628 0.7104249,0.225628"
         id="path11773"
         sodipodi:nodetypes="cssscsc" />
      <path
         id="path2653-0"
         d="m 10.583333,8.73125 c 0.529166,0 1.097934,-0.1850095 1.334137,-0.3239529 0.496954,-0.292326 0.92375,-0.8302061 1.087453,-1.1459181 0.09186,-0.1771549 0.2514,-1.1108391 0.198782,-1.5844073 -0.05262,-0.4735681 -0.128624,-1.6662582 -0.128624,-1.6662582"
         style="fill:none;stroke:#000000;stroke-width:0.132292;stroke-linecap:butt;stroke-linejoin:miter;stroke-miterlimit:4;stroke-dasharray:none;stroke-opacity:1" />
      <path
         id="path2655-0"
         d="m 14.370293,25.326419 c 0,0 -0.763178,-0.189303 -1.005809,-0.165917 -0.242631,0.02339 -0.570036,0.08478 -0.631424,0.201705 -0.06139,0.116931 -0.154933,0.561266 -0.157856,0.608039"
         style="fill:none;stroke:#000000;stroke-width:0.132292;stroke-linecap:butt;stroke-linejoin:miter;stroke-miterlimit:4;stroke-dasharray:none;stroke-opacity:1" />
      <path
         id="path2657-3"
         d="m 14.221353,13.762467 c 0,0 -0.496093,-0.169496 -0.727604,0.08682 -0.23151,0.256315 -0.818554,0.802018 -0.892968,1.562695 -0.07441,0.760677 -0.144694,2.736784 -0.07028,3.075781"
         style="fill:none;stroke:#000000;stroke-width:0.132292;stroke-linecap:butt;stroke-linejoin:miter;stroke-miterlimit:4;stroke-dasharray:none;stroke-opacity:1" />
      <path
         id="path2659-4"
         d="m 14.188843,18.533471 c 0,0 -0.461875,-0.198782 -0.675273,-0.201705 -0.213398,-0.0029 -0.78928,0.05847 -1.145918,0.228014 -0.356638,0.16955 -0.619731,0.289403 -0.619731,0.289403"
         style="fill:none;stroke:#000000;stroke-width:0.132292;stroke-linecap:butt;stroke-linejoin:miter;stroke-miterlimit:4;stroke-dasharray:none;stroke-opacity:1" />
      <path
         id="path2661-1"
         d="m 13.38787,12.070142 c 0,0 -1.078683,0.874055 -1.406088,1.341777 -0.327405,0.467721 -0.678197,1.028988 -0.783434,1.379779 -0.05262,0.175396 -0.07381,0.665041 -0.295249,0.838975"
         style="fill:none;stroke:#000000;stroke-width:0.198437;stroke-linecap:butt;stroke-linejoin:miter;stroke-miterlimit:4;stroke-dasharray:none;stroke-opacity:1" />
      <path
         id="path2663-6"
         d="m 17.594442,11.473797 c 0,0 -0.678197,0.0497 -0.938367,0.198782 -0.26017,0.149086 -0.491108,0.444336 -0.491108,0.444336"
         style="fill:none;stroke:#000000;stroke-width:0.132292;stroke-linecap:butt;stroke-linejoin:miter;stroke-miterlimit:4;stroke-dasharray:none;stroke-opacity:1" />
      <path
         id="path2665-5"
         d="m 17.757304,12.036674 c 0,0 -0.154092,-0.196008 -0.288562,-0.217932 -0.13447,-0.02192 -0.418027,-0.0029 -0.559805,0.0877 -0.141778,0.09062 -0.225091,0.178319 -0.238246,0.207551 -0.01316,0.02923 -0.05259,0.04237 -0.144568,0.04547 -0.09198,0.0031 -0.334864,0.0052 -0.343132,0.0052"
         style="fill:none;stroke:#000000;stroke-width:0.132292;stroke-linecap:butt;stroke-linejoin:miter;stroke-miterlimit:4;stroke-dasharray:none;stroke-opacity:1" />
      <path
         id="path2667-0"
         d="m 18.318261,14.585156 c 0,0 -0.181901,-0.02274 -0.206706,-0.08888 -0.02481,-0.06614 -0.0021,-0.316259 -0.04547,-0.446484 -0.04341,-0.130224 -0.142627,-0.177766 -0.173632,-0.204638"
         style="fill:none;stroke:#000000;stroke-width:0.132292;stroke-linecap:butt;stroke-linejoin:miter;stroke-miterlimit:4;stroke-dasharray:none;stroke-opacity:1" />
      <path
         id="path2669-5"
         d="m 15.992495,8.55346 c 0,0 -0.286479,0.058465 -0.333252,0.076005 -0.04677,0.017539 -0.05846,0.3449447 -0.09354,0.3858704 -0.03508,0.040926 -0.391717,0.2514005 -0.456028,0.26894 -0.06431,0.017539 -0.350792,-0.1637025 -0.391717,-0.1520095 -0.04093,0.011692 -0.385871,0.13447 -0.385871,0.13447"
         style="fill:none;stroke:#000000;stroke-width:0.132292;stroke-linecap:butt;stroke-linejoin:miter;stroke-miterlimit:4;stroke-dasharray:none;stroke-opacity:1" />
      <path
         id="path2671-0"
         d="m 15.612471,7.027518 c 0,0 -0.80682,0.1373934 -0.999755,0.02631 -0.192935,-0.1110835 -0.186967,-0.9319303 -0.283556,-1.2891576 -0.184165,-0.6811195 -0.686966,-1.4704 -0.686966,-1.4704"
         style="fill:none;stroke:#000000;stroke-width:0.132292;stroke-linecap:butt;stroke-linejoin:miter;stroke-miterlimit:4;stroke-dasharray:none;stroke-opacity:1" />
      <path
         id="path2673-1"
         d="m 14.165457,24.967567 c 0,0 -0.575882,-0.192935 -0.760047,-0.137393 -0.184166,0.05554 -0.637271,0.236784 -0.716199,0.228014 -0.07893,-0.0088 -0.198782,-0.149086 -0.27771,-0.119853 -0.07893,0.02923 -0.216321,0.195858 -0.225091,0.289402 -0.0088,0.09354 0.02631,0.368331 0.102314,0.456029 0.07601,0.0877 0.198782,0.137393 0.236784,0.146163 0.038,0.0088 0.08185,0.0058 0.08185,0.0058"
         style="fill:none;stroke:#000000;stroke-width:0.132292;stroke-linecap:butt;stroke-linejoin:miter;stroke-miterlimit:4;stroke-dasharray:none;stroke-opacity:1" />
      <path
         id="path2675-3"
         d="m 14.103531,24.674463 c 0,0 -0.444417,-0.642855 -0.932243,-0.630453 -0.487825,0.0124 -0.839225,0.227376 -0.855761,0.285254 -0.01654,0.05788 -0.14056,0.446484 -0.173633,0.599447 -0.03307,0.152962 -0.08268,0.285254 -0.144694,0.326595 -0.06201,0.04134 -0.289388,-0.107487 -0.289388,-0.107487"
         style="fill:none;stroke:#000000;stroke-width:0.132292;stroke-linecap:butt;stroke-linejoin:miter;stroke-miterlimit:4;stroke-dasharray:none;stroke-opacity:1" />
      <path
         id="path2677-5"
         d="m 14.312304,19.033463 c 0,0 -0.124023,0.504362 -0.214974,0.640788 -0.09095,0.136426 -0.157096,0.248047 -0.202572,0.227376 -0.04547,-0.02067 -0.124023,-0.157096 -0.355533,-0.136425 -0.231511,0.02067 -0.595313,0.136425 -0.640788,0.202571 -0.04547,0.06615 0.02481,0.144694 -0.256315,-0.0083 -0.28112,-0.152962 -0.446484,-0.227376 -0.446484,-0.272852 0,-0.04547 0.04547,-0.268717 -0.0041,-0.351399 -0.04961,-0.08268 -0.05374,-0.157097 -0.157097,-0.194304 -0.103353,-0.03721 -0.173633,-0.01654 -0.173633,-0.04134 0,-0.02481 0.0099,-0.265208 -0.112853,-0.250426 l -0.122791,0.01478"
         style="fill:none;stroke:#000000;stroke-width:0.132292;stroke-linecap:butt;stroke-linejoin:miter;stroke-miterlimit:4;stroke-dasharray:none;stroke-opacity:1" />
      <path
         id="path2679-7"
         d="m 14.274064,19.94917 c 0,0 -0.04651,0.229443 -0.19327,0.514697 -0.142989,0.277932 -0.136426,0.264583 -0.297657,0.190169 -0.16123,-0.07441 -0.396875,-0.16123 -0.562239,-0.07028 -0.165365,0.09095 -0.264583,0.276986 -0.417546,0.285254 -0.152962,0.0083 -0.487825,-0.165364 -0.686263,-0.516764 -0.198437,-0.3514 -0.367936,-0.500228 -0.343131,-0.574642 0.0248,-0.07441 0.124023,-0.28112 0.115755,-0.409277 -0.0083,-0.128158 -0.02723,-0.263122 -0.02723,-0.263122"
         style="fill:none;stroke:#000000;stroke-width:0.132292;stroke-linecap:butt;stroke-linejoin:miter;stroke-miterlimit:4;stroke-dasharray:none;stroke-opacity:1" />
      <path
         id="path2681-4"
         d="m 13.749421,23.186427 c 0,0 -0.400366,-0.138736 -0.435505,-0.256561 -0.03514,-0.117822 -0.231511,-0.09302 -0.291456,-0.08268 -0.05995,0.01033 -0.111621,0.157096 -0.233577,0.200505 -0.121956,0.04341 -0.254248,-0.0124 -0.307992,0.03927 -0.05374,0.05168 -0.163297,0.425814 -0.241845,0.448552 -0.07855,0.02274 -0.181901,0.03514 -0.181901,0.03514"
         style="fill:none;stroke:#000000;stroke-width:0.132292;stroke-linecap:butt;stroke-linejoin:miter;stroke-miterlimit:4;stroke-dasharray:none;stroke-opacity:1" />
      <path
         id="path2683-7"
         d="m 13.023485,22.855671 c 0,0 -0.05713,-0.09378 -0.153076,-0.148764 -0.145679,-0.08348 -0.396702,-0.09271 -0.603678,-0.178947 -0.206975,-0.08624 -0.51097,-0.278123 -0.648953,-0.390235 -0.137984,-0.112111 -0.267343,-0.235003 -0.301839,-0.293215"
         style="fill:none;stroke:#000000;stroke-width:0.132292;stroke-linecap:butt;stroke-linejoin:miter;stroke-miterlimit:4;stroke-dasharray:none;stroke-opacity:1" />
      <path
         id="path2685-9"
         d="m 13.282203,22.879387 c 0,0 0.06145,-0.05713 0.08193,-0.100254 0.02048,-0.04312 0.06899,-0.121814 0.143374,-0.162777 0.07438,-0.04096 0.197273,-0.09918 0.280279,-0.13475 0.08301,-0.03557 0.164933,-0.04635 0.164933,-0.04635"
         style="fill:none;stroke:#000000;stroke-width:0.132292;stroke-linecap:butt;stroke-linejoin:miter;stroke-miterlimit:4;stroke-dasharray:none;stroke-opacity:1" />
      <path
         id="path2687-7"
         d="m 12.577194,7.8348747 c 0,0 -0.03018,0.4743183 0.06468,0.7244133 0.09486,0.250095 0.323399,0.7718452 0.422574,0.9313886 0.09918,0.1595435 0.113158,0.2290582 0.113158,0.2290582"
         style="fill:none;stroke:#000000;stroke-width:0.132292;stroke-linecap:butt;stroke-linejoin:miter;stroke-miterlimit:4;stroke-dasharray:none;stroke-opacity:1" />
      <path
         id="path2689-8"
         d="m 13.598966,8.1714086 c 0,0 -0.216481,-0.2957563 -0.365884,-0.5152866 C 13.083679,7.4365916 12.989159,7.2993851 12.989159,7.2993851"
         style="fill:none;stroke:#000000;stroke-width:0.132292;stroke-linecap:butt;stroke-linejoin:miter;stroke-miterlimit:4;stroke-dasharray:none;stroke-opacity:1" />
      <path
         id="path2691-3"
         d="m 13.217837,7.6286808 c 0,0 0.08842,-0.265266 0.06708,-0.5030905 -0.02134,-0.2378247 -0.03049,-0.3445406 -0.06403,-0.4116194 -0.03354,-0.067079 -0.07013,-0.079275 -0.07013,-0.079275"
         style="fill:none;stroke:#000000;stroke-width:0.132292;stroke-linecap:butt;stroke-linejoin:miter;stroke-miterlimit:4;stroke-dasharray:none;stroke-opacity:1" />
      <path
         id="path2697-4"
         d="m 11.112499,10.31875 c 0.224224,-0.0043 0.529167,0 0.481563,-0.263204 -0.01458,-0.080619 -0.02587,-0.2371586 -0.215599,-0.4915658 -0.189728,-0.2544065 -0.511428,-0.3035635 -0.79513,-0.3035635 -0.283702,0 -0.605402,0.049157 -0.79513,0.3035634 -0.189727,0.2544072 -0.201018,0.4109465 -0.215599,0.4915659 -0.0476,0.263204 0.257339,0.258892 0.481563,0.263204 0.224223,0.0043 0.264583,4e-6 0.529166,4e-6 0.264583,0 0.304943,0.0043 0.529166,-4e-6 z"
         style="fill:none;stroke:#000000;stroke-width:0.132292;stroke-linecap:butt;stroke-linejoin:miter;stroke-miterlimit:4;stroke-dasharray:none;stroke-opacity:1"
         sodipodi:nodetypes="csszssczc" />
      <path
         id="path2699-5"
         d="m 12.089695,13.290735 c 0,0 -0.07318,0.118912 -0.314051,0.335394 -0.240873,0.216481 -0.414668,0.274413 -0.59761,0.350637 -0.182942,0.07623 -0.395871,0.04615 -0.594701,0.04615 -0.19883,0 -0.411759,0.03008 -0.594701,-0.04615 C 9.80569,13.900546 9.631895,13.84261 9.391022,13.626129 9.150148,13.409647 9.076971,13.290735 9.076971,13.290735"
         style="fill:none;stroke:#000000;stroke-width:0.132292;stroke-linecap:butt;stroke-linejoin:miter;stroke-miterlimit:4;stroke-dasharray:none;stroke-opacity:1"
         sodipodi:nodetypes="csczcsc" />
      <path
         id="path2701-0"
         d="m 11.235966,11.369847 c 0.140255,-0.0061 0.4057,0.0072 0.271363,-0.277461 -0.118206,-0.250513 -0.167696,-0.426863 -0.341491,-0.496993 -0.173795,-0.07013 -0.388295,-0.01206 -0.582505,-0.01206 -0.19421,0 -0.40871,-0.05807 -0.582505,0.01206 -0.173795,0.07013 -0.223285,0.24648 -0.341491,0.496993 -0.134337,0.284697 0.131108,0.271363 0.271363,0.277461 0.140256,0.0061 0.38805,0.0072 0.652633,0.0072 0.264583,0 0.512377,-0.0011 0.652633,-0.0072 z"
         style="fill:none;stroke:#000000;stroke-width:0.132292;stroke-linecap:butt;stroke-linejoin:miter;stroke-miterlimit:4;stroke-dasharray:none;stroke-opacity:1"
         sodipodi:nodetypes="ssszssszs" />
      <path
         id="path2703-0"
         d="m 11.112499,12.17084 c 0.264584,0 0.306409,-0.05397 0.303359,-0.111905 -0.003,-0.05793 -0.108221,-0.286158 -0.221035,-0.359338 -0.112814,-0.07319 -0.406747,-0.05793 -0.61149,-0.05793 -0.204743,0 -0.498676,-0.01526 -0.61149,0.05793 -0.112814,0.07318 -0.217986,0.301406 -0.221035,0.359338 -0.003,0.05793 0.03877,0.111905 0.303359,0.111905 0,0 0.352777,0 0.529166,0 0.176389,0 0.529166,0 0.529166,0 z"
         style="fill:none;stroke:#000000;stroke-width:0.132292;stroke-linecap:butt;stroke-linejoin:miter;stroke-miterlimit:4;stroke-dasharray:none;stroke-opacity:1"
         sodipodi:nodetypes="ssczcsszs" />
      <path
         id="path2705-6"
         d="m 12.853161,9.9779307 c 0,0 -0.06037,0.028028 -0.09271,0.1487633 -0.03234,0.120736 -0.0065,0.610146 -0.04096,0.778313 -0.0345,0.168168 -0.12936,0.379455 -0.200507,0.487254 l -0.07115,0.1078 c 0,0 -0.19959,0.296648 -0.358139,0.403364 -0.15855,0.106716 -0.710425,0.225628 -0.710425,0.225628"
         style="fill:none;stroke:#000000;stroke-width:0.132292;stroke-linecap:butt;stroke-linejoin:miter;stroke-miterlimit:4;stroke-dasharray:none;stroke-opacity:1" />
      <path
         id="path2709-7"
         d="m 12.22871,2.3585125 c -0.107487,0.5353682 -1.066886,0.5519042 -1.645377,0.5519042 -0.578491,0 -1.53789,-0.016536 -1.645377,-0.5519043"
         style="fill:none;stroke:#000000;stroke-width:0.132292;stroke-linecap:butt;stroke-linejoin:miter;stroke-miterlimit:4;stroke-dasharray:none;stroke-opacity:1"
         sodipodi:nodetypes="czc" />
    </g>
  </g>
</svg>
